# xmcd
#
# Track frame offsets: 
#        150
#        18072
#        35931
#        52395
#        68966
#        79048
#        103005
#        122544
#        134921
#        153573
#        170444
#        193418
#
# Disc length: 2711 seconds
#
# Revision: 0
# Processed by: cddbd v1.5.2PL0 Copyright (c) Steve Scherf et al.
# Submitted via: ExactAudioCopyFreeDBPlugin 1.0
#
DISCID=b30a950c
DTITLE=R. J. Mischo - Everything I Need
DYEAR=2014
DGENRE=Blues
TTITLE0=Got My Passport
TTITLE1=She's My Baby
TTITLE2=Big Walter Boogie
TTITLE3=Everything I Need
TTITLE4=Sugar Babe
TTITLE5=Soul Swamp
TTITLE6=Leave Your Man
TTITLE7=Little Walter Shuffle
TTITLE8=Keep On Lying
TTITLE9=Got My Brand On You
TTITLE10=Wait On Me
TTITLE11=In and Out Boogie
EXTD=
EXTT0=
EXTT1=
EXTT2=
EXTT3=
EXTT4=
EXTT5=
EXTT6=
EXTT7=
EXTT8=
EXTT9=
EXTT10=
EXTT11=
PLAYORDER=
